<svg width="16" height="21" viewBox="0 0 16 21" fill="none" xmlns="http://www.w3.org/2000/svg">
<path d="M7.91667 0.129517C5.8178 0.132018 3.8056 0.975382 2.32148 2.47461C0.837354 3.97384 0.00248452 6.0065 8.42252e-06 8.12673C-0.0025054 9.85938 0.557759 11.545 1.59486 12.9251C1.59486 12.9251 1.81076 13.2122 1.84603 13.2537L7.91667 20.4861L13.9902 13.25C14.0218 13.2115 14.2385 12.9251 14.2385 12.9251L14.2392 12.9229C15.2758 11.5434 15.8358 9.85858 15.8333 8.12673C15.8308 6.0065 14.996 3.97384 13.5119 2.47461C12.0277 0.975382 10.0155 0.132018 7.91667 0.129517ZM7.91667 11.0348C7.3473 11.0348 6.79071 10.8643 6.3173 10.5447C5.84389 10.2252 5.4749 9.77098 5.25702 9.2396C5.03913 8.70822 4.98212 8.1235 5.0932 7.55939C5.20428 6.99528 5.47845 6.47711 5.88106 6.07041C6.28366 5.66371 6.79661 5.38674 7.35504 5.27453C7.91347 5.16232 8.4923 5.21991 9.01833 5.44002C9.54436 5.66012 9.99396 6.03286 10.3103 6.51109C10.6266 6.98932 10.7955 7.55157 10.7955 8.12673C10.7945 8.8977 10.4909 9.63683 9.95122 10.182C9.41155 10.7271 8.67988 11.0338 7.91667 11.0348Z" fill="black"/>
</svg>
